<svg width="72" height="17" viewBox="0 0 72 17" fill="none" xmlns="http://www.w3.org/2000/svg">
<path d="M2.47585 16H0.536932L6.14489 0.727272H8.05398L13.6619 16H11.723L7.15909 3.14347H7.03977L2.47585 16ZM3.19176 10.0341H11.0071V11.6747H3.19176V10.0341ZM44.9009 16.2386C43.9464 16.2386 43.1037 15.9975 42.3729 15.5153C41.642 15.0281 41.0703 14.342 40.6577 13.457C40.245 12.5671 40.0387 11.5156 40.0387 10.3026C40.0387 9.09943 40.245 8.0554 40.6577 7.17045C41.0703 6.28551 41.6445 5.60192 42.3803 5.11967C43.1161 4.63743 43.9663 4.39631 44.9308 4.39631C45.6765 4.39631 46.2656 4.5206 46.6982 4.76918C47.1357 5.01278 47.4688 5.29119 47.6974 5.6044C47.9311 5.91264 48.1126 6.16619 48.2418 6.36506H48.391V0.727272H50.1509V16H48.4506V14.2401H48.2418C48.1126 14.4489 47.9286 14.7124 47.69 15.0305C47.4513 15.3437 47.1108 15.6246 46.6683 15.8732C46.2259 16.1168 45.6367 16.2386 44.9009 16.2386ZM45.1396 14.6577C45.8455 14.6577 46.4421 14.4737 46.9293 14.1058C47.4165 13.733 47.7869 13.2184 48.0405 12.5621C48.294 11.9009 48.4208 11.1378 48.4208 10.2727C48.4208 9.41761 48.2965 8.66939 48.0479 8.02805C47.7994 7.38175 47.4315 6.87962 46.9442 6.52166C46.457 6.15874 45.8555 5.97727 45.1396 5.97727C44.3938 5.97727 43.7724 6.16868 43.2752 6.55149C42.783 6.92933 42.4126 7.44389 42.1641 8.09517C41.9205 8.74148 41.7987 9.46733 41.7987 10.2727C41.7987 11.0881 41.9229 11.8288 42.1715 12.495C42.4251 13.1562 42.7979 13.6832 43.2901 14.076C43.7873 14.4638 44.4038 14.6577 45.1396 14.6577Z" fill="#4285F4"/>
<path d="M16.0408 16V0.727272H17.8008V6.36506H17.9499C18.0792 6.16619 18.2582 5.91264 18.4869 5.6044C18.7205 5.29119 19.0536 5.01278 19.4862 4.76918C19.9237 4.5206 20.5153 4.39631 21.261 4.39631C22.2255 4.39631 23.0756 4.63743 23.8114 5.11967C24.5472 5.60192 25.1214 6.28551 25.5341 7.17045C25.9467 8.0554 26.1531 9.09943 26.1531 10.3026C26.1531 11.5156 25.9467 12.5671 25.5341 13.457C25.1214 14.342 24.5497 15.0281 23.8189 15.5153C23.0881 15.9975 22.2454 16.2386 21.2908 16.2386C20.555 16.2386 19.9659 16.1168 19.5234 15.8732C19.081 15.6246 18.7404 15.3437 18.5018 15.0305C18.2631 14.7124 18.0792 14.4489 17.9499 14.2401H17.7411V16H16.0408ZM17.771 10.2727C17.771 11.1378 17.8977 11.9009 18.1513 12.5621C18.4048 13.2184 18.7752 13.733 19.2624 14.1058C19.7496 14.4737 20.3462 14.6577 21.0522 14.6577C21.788 14.6577 22.402 14.4638 22.8942 14.076C23.3913 13.6832 23.7642 13.1562 24.0128 12.495C24.2663 11.8288 24.3931 11.0881 24.3931 10.2727C24.3931 9.46733 24.2688 8.74148 24.0202 8.09517C23.7766 7.44389 23.4063 6.92933 22.9091 6.55149C22.4169 6.16868 21.7979 5.97727 21.0522 5.97727C20.3363 5.97727 19.7347 6.15874 19.2475 6.52166C18.7603 6.87962 18.3924 7.38175 18.1438 8.02805C17.8952 8.66939 17.771 9.41761 17.771 10.2727ZM70.9421 4.54545V6.03693H64.7674V4.54545H70.9421ZM66.6168 16V2.96449C66.6168 2.30824 66.771 1.76136 67.0792 1.32386C67.3874 0.886363 67.7876 0.558238 68.2798 0.339488C68.772 0.120738 69.2915 0.0113626 69.8384 0.0113626C70.271 0.0113626 70.6239 0.046164 70.8974 0.115767C71.1708 0.185369 71.3746 0.249999 71.5089 0.309658L71.0018 1.83097C70.9123 1.80114 70.788 1.76385 70.6289 1.7191C70.4748 1.67436 70.271 1.65199 70.0174 1.65199C69.4357 1.65199 69.0156 1.79865 68.7571 2.09197C68.5036 2.3853 68.3768 2.81534 68.3768 3.3821V16H66.6168Z" fill="#DB4437"/>
<path d="M33.4986 16.2386C32.4247 16.2386 31.5 15.9851 30.7244 15.478C29.9489 14.9709 29.3523 14.2724 28.9347 13.3825C28.517 12.4925 28.3082 11.4759 28.3082 10.3324C28.3082 9.16903 28.522 8.1424 28.9496 7.25249C29.3821 6.3576 29.9837 5.65909 30.7543 5.15696C31.5298 4.64986 32.4347 4.39631 33.4688 4.39631C34.2741 4.39631 35 4.54545 35.6463 4.84375C36.2926 5.14205 36.8221 5.55966 37.2347 6.09659C37.6474 6.63352 37.9034 7.25994 38.0028 7.97585H36.2429C36.1087 7.45383 35.8104 6.99148 35.348 6.58878C34.8906 6.18111 34.2741 5.97727 33.4986 5.97727C32.8125 5.97727 32.2109 6.15625 31.6939 6.5142C31.1818 6.86719 30.7816 7.36683 30.4933 8.01314C30.2099 8.65447 30.0682 9.40767 30.0682 10.2727C30.0682 11.1577 30.2074 11.9283 30.4858 12.5845C30.7692 13.2408 31.1669 13.7504 31.679 14.1133C32.196 14.4762 32.8026 14.6577 33.4986 14.6577C33.956 14.6577 34.3711 14.5781 34.744 14.419C35.1168 14.2599 35.4325 14.0312 35.6911 13.733C35.9496 13.4347 36.1335 13.0767 36.2429 12.6591H38.0028C37.9034 13.3352 37.6573 13.9442 37.2646 14.4862C36.8768 15.0231 36.3622 15.4506 35.7209 15.7688C35.0845 16.082 34.3438 16.2386 33.4986 16.2386Z" fill="#F4B400"/>
<path d="M58.4212 16.2386C57.3175 16.2386 56.3654 15.995 55.565 15.5078C54.7695 15.0156 54.1555 14.3295 53.723 13.4496C53.2955 12.5646 53.0817 11.5355 53.0817 10.3622C53.0817 9.18892 53.2955 8.15483 53.723 7.25994C54.1555 6.36009 54.7571 5.65909 55.5277 5.15696C56.3033 4.64986 57.2081 4.39631 58.2422 4.39631C58.8388 4.39631 59.4279 4.49574 60.0096 4.6946C60.5913 4.89347 61.1207 5.21662 61.598 5.66406C62.0753 6.10653 62.4556 6.69318 62.739 7.42401C63.0224 8.15483 63.1641 9.05469 63.1641 10.1236V10.8693H54.3345V9.34801H61.3743C61.3743 8.7017 61.245 8.125 60.9865 7.6179C60.733 7.11079 60.37 6.71058 59.8977 6.41726C59.4304 6.12393 58.8786 5.97727 58.2422 5.97727C57.5412 5.97727 56.9347 6.15128 56.4226 6.49929C55.9155 6.84233 55.5252 7.28977 55.2518 7.84162C54.9783 8.39347 54.8416 8.98508 54.8416 9.61648V10.6307C54.8416 11.4957 54.9908 12.229 55.2891 12.8306C55.5923 13.4272 56.0124 13.8821 56.5494 14.1953C57.0863 14.5036 57.7102 14.6577 58.4212 14.6577C58.8835 14.6577 59.3011 14.593 59.674 14.4638C60.0518 14.3295 60.3775 14.1307 60.6509 13.8672C60.9244 13.5987 61.1357 13.2656 61.2848 12.8679L62.9851 13.3452C62.8061 13.9219 62.5053 14.429 62.0827 14.8665C61.6602 15.299 61.1381 15.6371 60.5167 15.8807C59.8952 16.1193 59.1967 16.2386 58.4212 16.2386Z" fill="#0F9D58"/>
</svg>
