<svg width="20" height="20" viewBox="0 0 20 20" fill="none" xmlns="http://www.w3.org/2000/svg">
<rect x="0.75" y="0.75" width="18.5" height="18.5" rx="9.25" stroke="#5F6368" stroke-width="1.5"/>
<path d="M8.50506 13.152V12.9858C8.50932 12.2145 8.58177 11.6009 8.72239 11.1449C8.86728 10.6889 9.07182 10.3224 9.33603 10.0455C9.60023 9.7642 9.92196 9.50639 10.3012 9.27202C10.5612 9.11008 10.7934 8.93324 10.998 8.74148C11.2068 8.54545 11.3708 8.32812 11.4901 8.08949C11.6095 7.84659 11.6691 7.57599 11.6691 7.2777C11.6691 6.94105 11.5903 6.64915 11.4326 6.40199C11.2749 6.15483 11.0619 5.96307 10.7934 5.8267C10.5292 5.69034 10.233 5.62216 9.90492 5.62216C9.60236 5.62216 9.31472 5.68821 9.04199 5.82031C8.77353 5.94815 8.5498 6.14418 8.37083 6.40838C8.19611 6.66832 8.0981 6.99858 8.07679 7.39915H5.80123C5.82253 6.58949 6.01855 5.91193 6.38929 5.36648C6.76429 4.82102 7.25861 4.41193 7.87225 4.1392C8.49015 3.86648 9.17196 3.73011 9.9177 3.73011C10.7316 3.73011 11.4475 3.87287 12.0654 4.15838C12.6876 4.44389 13.1713 4.85085 13.5164 5.37926C13.8659 5.90341 14.0406 6.52557 14.0406 7.24574C14.0406 7.73153 13.9617 8.16619 13.8041 8.54972C13.6507 8.93324 13.4312 9.27415 13.1457 9.57244C12.8602 9.87074 12.5214 10.1371 12.1294 10.3714C11.7842 10.5845 11.5008 10.8061 11.2792 11.0362C11.0619 11.2663 10.8999 11.5369 10.7934 11.848C10.6911 12.1548 10.6379 12.5341 10.6336 12.9858V13.152H8.50506ZM9.61728 17.1406C9.23375 17.1406 8.9035 17.0043 8.62651 16.7315C8.34952 16.4588 8.21103 16.1264 8.21103 15.7344C8.21103 15.3509 8.34952 15.0227 8.62651 14.75C8.9035 14.4773 9.23375 14.3409 9.61728 14.3409C9.99654 14.3409 10.3247 14.4773 10.6017 14.75C10.8829 15.0227 11.0235 15.3509 11.0235 15.7344C11.0235 15.9943 10.9575 16.2308 10.8254 16.4439C10.6975 16.657 10.5271 16.8274 10.314 16.9553C10.1052 17.0788 9.87296 17.1406 9.61728 17.1406Z" fill="#5F6368"/>
</svg>
